<svg width="23" height="29" viewBox="0 0 23 29" fill="none" xmlns="http://www.w3.org/2000/svg">
<path d="M8.84358 2.2034C7.13648 2.2034 5.42707 2.85837 4.12858 4.16815C1.5316 6.78771 1.5316 11.0533 4.12858 13.6729C6.56189 16.1274 10.4269 16.282 13.0411 14.1369H13.0483L19.6392 20.7924C19.7688 20.9231 19.9446 20.9966 20.128 20.9966C20.3113 20.9966 20.4871 20.9231 20.6167 20.7924C20.7463 20.6616 20.8192 20.4843 20.8192 20.2994C20.8192 20.1145 20.7463 19.9371 20.6167 19.8064L14.0186 13.1509C16.1385 10.5141 15.9895 6.62017 13.5586 4.16815C12.2601 2.85837 10.5507 2.2034 8.84358 2.2034ZM8.84358 3.58815C10.195 3.58815 11.5463 4.11034 12.5811 5.15415C14.6363 7.22728 14.651 10.56 12.6242 12.6506C12.6195 12.6555 12.6146 12.6604 12.6098 12.665C12.5898 12.6809 12.5706 12.6978 12.5523 12.7158C10.4809 14.7775 7.16714 14.7657 5.10608 12.6868C3.03647 10.5992 3.03647 7.24163 5.10608 5.15402C6.14089 4.11022 7.49216 3.58802 8.84358 3.58802V3.58815Z" fill="#4F4F4F"/>
</svg>
